<?xml version="1.0" encoding="UTF-8"?>
<svg id="Layer_1" data-name="Layer 1" xmlns="http://www.w3.org/2000/svg" viewBox="0 0 384 512">
  <defs>
    <style>
      .cls-1 {
        fill: #f27d42;
        stroke-width: 0px;
      }
    </style>
  </defs>
  <path class="cls-1" d="m64,0C28.7,0,0,28.7,0,64v384c0,35.3,28.7,64,64,64h256c35.3,0,64-28.7,64-64V160h-128c-17.7,0-32-14.3-32-32V0H64Zm192,0v128h128L256,0ZM112,256h160c8.8,0,16,7.2,16,16s-7.2,16-16,16H112c-8.8,0-16-7.2-16-16s7.2-16,16-16Zm0,64h160c8.8,0,16,7.2,16,16s-7.2,16-16,16H112c-8.8,0-16-7.2-16-16s7.2-16,16-16Zm0,64h160c8.8,0,16,7.2,16,16s-7.2,16-16,16H112c-8.8,0-16-7.2-16-16s7.2-16,16-16Z"/>
</svg>