<?xml version="1.0" encoding="utf-8"?>
<!-- Generator: Adobe Illustrator 27.9.0, SVG Export Plug-In . SVG Version: 6.00 Build 0)  -->
<svg version="1.1" id="Layer_1" xmlns="http://www.w3.org/2000/svg" xmlns:xlink="http://www.w3.org/1999/xlink" x="0px" y="0px"
	 viewBox="0 0 964 964" style="enable-background:new 0 0 964 964;" xml:space="preserve">
<style type="text/css">
	.st0{fill:#F27D42;}
	.st1{fill-rule:evenodd;clip-rule:evenodd;fill:#F27D42;}
</style>
<path class="st0" d="M241.1,306.8c36.3,0,65.7-29.4,65.7-65.7s-29.4-65.7-65.7-65.7s-65.7,29.4-65.7,65.7S204.8,306.8,241.1,306.8z"
	/>
<path class="st0" d="M175.3,394.4c0-24.2,19.6-43.8,43.8-43.8H263c24.2,0,43.8,19.6,43.8,43.8v350.5c0,24.2-19.6,43.8-43.8,43.8
	h-43.8c-24.2,0-43.8-19.6-43.8-43.8V394.4z"/>
<path class="st0" d="M438.2,788.7H482c24.2,0,43.8-19.6,43.8-43.8V547.7c0-65.7,131.4-109.5,131.4-21.9v219.1
	c0,24.2,19.6,43.8,43.8,43.8h43.8c24.2,0,43.8-19.6,43.8-43.8V482c0-87.6-65.7-131.4-153.3-131.4s-109.5,65.7-109.5,65.7v-21.9
	c0-24.2-19.6-43.8-43.8-43.8h-43.8c-24.2,0-43.8,19.6-43.8,43.8v350.5C394.4,769,414,788.7,438.2,788.7z"/>
<path class="st1" d="M832.5,0.1c72.6,0,131.4,58.8,131.4,131.4v700.9c0,72.6-58.8,131.4-131.4,131.4H131.5
	C59,963.9,0.1,905.1,0.1,832.5V131.5C0.1,59,59,0.1,131.5,0.1H832.5z M832.5,87.7c24.2,0,43.8,19.6,43.8,43.8v700.9
	c0,24.2-19.6,43.8-43.8,43.8H131.5c-24.2,0-43.8-19.6-43.8-43.8V131.5c0-24.2,19.6-43.8,43.8-43.8H832.5z"/>
</svg>
